<svg width="80" height="19" viewBox="0 0 80 19" fill="none" xmlns="http://www.w3.org/2000/svg">
<path d="M2.4 10.824H3.972C4.556 10.824 5.068 10.744 5.508 10.584C5.956 10.416 6.308 10.176 6.564 9.864C6.828 9.552 6.96 9.176 6.96 8.736C6.96 8.256 6.828 7.86 6.564 7.548C6.308 7.228 5.956 6.992 5.508 6.84C5.068 6.68 4.556 6.6 3.972 6.6H0.888V15H4.176C4.84 15 5.416 14.92 5.904 14.76C6.392 14.592 6.768 14.336 7.032 13.992C7.304 13.648 7.44 13.196 7.44 12.636C7.44 12.212 7.344 11.852 7.152 11.556C6.968 11.252 6.72 11.004 6.408 10.812C6.096 10.612 5.748 10.468 5.364 10.38C4.98 10.292 4.584 10.248 4.176 10.248H2.4V11.352H3.948C4.148 11.352 4.328 11.372 4.488 11.412C4.656 11.444 4.804 11.5 4.932 11.58C5.06 11.66 5.16 11.764 5.232 11.892C5.304 12.02 5.34 12.172 5.34 12.348C5.34 12.62 5.276 12.836 5.148 12.996C5.028 13.148 4.864 13.26 4.656 13.332C4.448 13.396 4.212 13.428 3.948 13.428H2.916V8.172H3.756C4.108 8.172 4.38 8.244 4.572 8.388C4.764 8.532 4.86 8.748 4.86 9.036C4.86 9.228 4.816 9.392 4.728 9.528C4.64 9.656 4.512 9.756 4.344 9.828C4.184 9.9 3.988 9.936 3.756 9.936H2.4V10.824ZM10.001 13.38H14.441L14.309 11.832H10.145L10.001 13.38ZM12.197 9.684L13.385 12.408L13.313 12.924L14.321 15H16.625L12.197 6.072L7.78097 15H10.073L11.117 12.84L11.021 12.396L12.197 9.684ZM18.8699 10.8C18.8699 10.28 18.9859 9.836 19.2179 9.468C19.4499 9.1 19.7539 8.82 20.1299 8.628C20.5139 8.436 20.9339 8.34 21.3899 8.34C21.7899 8.34 22.1419 8.392 22.4459 8.496C22.7499 8.592 23.0219 8.728 23.2619 8.904C23.5019 9.072 23.7139 9.252 23.8979 9.444V7.26C23.5619 6.996 23.1939 6.788 22.7939 6.636C22.3939 6.484 21.8859 6.408 21.2699 6.408C20.5979 6.408 19.9779 6.512 19.4099 6.72C18.8419 6.928 18.3539 7.228 17.9459 7.62C17.5379 8.012 17.2219 8.476 16.9979 9.012C16.7739 9.548 16.6619 10.144 16.6619 10.8C16.6619 11.456 16.7739 12.052 16.9979 12.588C17.2219 13.124 17.5379 13.588 17.9459 13.98C18.3539 14.372 18.8419 14.672 19.4099 14.88C19.9779 15.088 20.5979 15.192 21.2699 15.192C21.8859 15.192 22.3939 15.116 22.7939 14.964C23.1939 14.812 23.5619 14.604 23.8979 14.34V12.156C23.7139 12.348 23.5019 12.528 23.2619 12.696C23.0219 12.864 22.7499 13 22.4459 13.104C22.1419 13.208 21.7899 13.26 21.3899 13.26C20.9339 13.26 20.5139 13.164 20.1299 12.972C19.7539 12.78 19.4499 12.5 19.2179 12.132C18.9859 11.756 18.8699 11.312 18.8699 10.8ZM25.556 6.6V15H27.656V6.6H25.556ZM30.512 6.6L27.068 10.596L30.608 15H33.068L29.48 10.536L32.888 6.6H30.512Z" fill="black"/>
<path d="M40.048 8.412H42.352V15H44.38V8.412H46.696V6.6H40.048V8.412ZM49.7146 11.196L52.0666 15H54.4426L51.8146 11.196H49.7146ZM47.6146 6.6V15H49.6426V6.6H47.6146ZM48.8866 8.316H50.5306C50.8026 8.316 51.0346 8.36 51.2266 8.448C51.4266 8.536 51.5786 8.664 51.6826 8.832C51.7866 8.992 51.8386 9.188 51.8386 9.42C51.8386 9.652 51.7866 9.852 51.6826 10.02C51.5786 10.18 51.4266 10.304 51.2266 10.392C51.0346 10.472 50.8026 10.512 50.5306 10.512H48.8866V12.084H50.6746C51.3946 12.084 51.9946 11.968 52.4746 11.736C52.9546 11.504 53.3186 11.184 53.5666 10.776C53.8146 10.36 53.9386 9.884 53.9386 9.348C53.9386 8.804 53.8146 8.328 53.5666 7.92C53.3186 7.504 52.9546 7.18 52.4746 6.948C51.9946 6.716 51.3946 6.6 50.6746 6.6H48.8866V8.316ZM56.7041 13.38H61.1441L61.0121 11.832H56.8481L56.7041 13.38ZM58.9001 9.684L60.0881 12.408L60.0161 12.924L61.0241 15H63.3281L58.9001 6.072L54.4841 15H56.7761L57.8201 12.84L57.7241 12.396L58.9001 9.684ZM65.573 10.8C65.573 10.28 65.689 9.836 65.921 9.468C66.153 9.1 66.457 8.82 66.833 8.628C67.217 8.436 67.637 8.34 68.093 8.34C68.493 8.34 68.845 8.392 69.149 8.496C69.453 8.592 69.725 8.728 69.965 8.904C70.205 9.072 70.417 9.252 70.601 9.444V7.26C70.265 6.996 69.897 6.788 69.497 6.636C69.097 6.484 68.589 6.408 67.973 6.408C67.301 6.408 66.681 6.512 66.113 6.72C65.545 6.928 65.057 7.228 64.649 7.62C64.241 8.012 63.925 8.476 63.701 9.012C63.477 9.548 63.365 10.144 63.365 10.8C63.365 11.456 63.477 12.052 63.701 12.588C63.925 13.124 64.241 13.588 64.649 13.98C65.057 14.372 65.545 14.672 66.113 14.88C66.681 15.088 67.301 15.192 67.973 15.192C68.589 15.192 69.097 15.116 69.497 14.964C69.897 14.812 70.265 14.604 70.601 14.34V12.156C70.417 12.348 70.205 12.528 69.965 12.696C69.725 12.864 69.453 13 69.149 13.104C68.845 13.208 68.493 13.26 68.093 13.26C67.637 13.26 67.217 13.164 66.833 12.972C66.457 12.78 66.153 12.5 65.921 12.132C65.689 11.756 65.573 11.312 65.573 10.8ZM72.2591 6.6V15H74.3591V6.6H72.2591ZM77.2151 6.6L73.7711 10.596L77.3111 15H79.7711L76.1831 10.536L79.5911 6.6H77.2151Z" fill="black"/>
<path d="M37.6641 9.58608C35.4826 5.7157 37.2829 1.87465 38.4557 0.437915C39.0891 -0.26579 38.7197 0.613841 38.4557 1.14162C37.7813 2.3731 36.8899 5.68052 38.7195 9.0583C41.0066 13.2805 39.2473 17.5028 38.2797 18.4704C37.5057 19.2444 37.7226 18.617 37.9279 18.2065C38.7489 16.9457 39.8456 13.4565 37.6641 9.58608Z" fill="#0069ED"/>
<circle cx="36.4632" cy="0.351852" r="0.351852" fill="#0069ED"/>
<circle cx="35.5823" cy="18.6482" r="0.351852" fill="#0069ED"/>
<circle cx="35.7582" cy="1.75922" r="0.527779" fill="#0069ED"/>
<circle cx="36.4633" cy="17.2407" r="0.527779" fill="#0069ED"/>
<circle cx="35.0553" cy="3.5184" r="0.703705" fill="#0069ED"/>
<circle cx="36.9898" cy="15.6573" r="0.703705" fill="#0069ED"/>
<circle cx="34.8796" cy="5.45361" r="0.879631" fill="#0069ED"/>
<circle cx="37.3435" cy="13.5461" r="0.879631" fill="#0069ED"/>
<circle cx="35.2312" cy="7.56493" r="0.879631" fill="#0069ED"/>
<circle cx="36.1101" cy="9.49999" r="0.879631" fill="#0069ED"/>
<circle cx="36.8152" cy="11.4351" r="0.879631" fill="#0069ED"/>
</svg>
